<svg xmlns="http://www.w3.org/2000/svg" viewBox="0 0 24 24" id="money">
  <polygon fill="#3870cf" points="7 5 5 5 4 1 8 1 7 5"></polygon>
  <polygon fill="#3870cf" points="11 5 9 5 8 1 12 1 11 5"></polygon>
  <path fill="#468ff1" d="M9.09,22H6.91A6.91,6.91,0,0,1,1.16,11.26L4,7h8l2.84,4.26A6.91,6.91,0,0,1,9.09,22Z"></path>
  <path fill="#fff" d="M7.5,12H11V10H9V9H7v1.05A2.5,2.5,0,0,0,7.5,15h1a.5.5,0,0,1,0,1H5v2H7v1H9V18A2.5,2.5,0,0,0,8.5,13h-1a.5.5,0,0,1,0-1Z"></path>
  <polygon fill="#468ff1" points="9 5 7 5 6 0 10 0 9 5"></polygon>
  <rect width="10" height="3" x="3" y="4" fill="#61c5fa"></rect>
  <path fill="#6dedd4" d="M24,14v3.9A6.22,6.22,0,0,1,19,24a6.21,6.21,0,0,1-5-6.1V14l5-2Z"></path>
  <polygon fill="#fff" points="18.5 20.41 15.79 17.71 17.21 16.29 18.5 17.59 20.79 15.29 22.21 16.71 18.5 20.41"></polygon>
</svg>
