<svg xmlns="http://www.w3.org/2000/svg" viewBox="0 0 32 32" id="tax">
  <rect width="32" height="32" fill="#fff" opacity="0"></rect>
  <path fill="#dab5ff" d="M28,6V21H20v8H7a3,3,0,0,1-3-3V6A3,3,0,0,1,7,3H25A3,3,0,0,1,28,6Z"></path>
  <line x1="8" x2="12" y1="8" y2="8" fill="none" stroke="#753bf4" stroke-linecap="round" stroke-linejoin="round" stroke-width="2"></line>
  <line x1="10" x2="10" y1="12" y2="8" fill="none" stroke="#753bf4" stroke-linecap="round" stroke-linejoin="round" stroke-width="2"></line>
  <polyline fill="none" stroke="#753bf4" stroke-linecap="round" stroke-linejoin="round" stroke-width="2" points="14 12 16 8 18 12"></polyline>
  <line x1="15" x2="17" y1="11" y2="11" fill="none" stroke="#753bf4" stroke-linecap="round" stroke-linejoin="round" stroke-width="2"></line>
  <line x1="21" x2="24" y1="8" y2="12" fill="none" stroke="#753bf4" stroke-linecap="round" stroke-linejoin="round" stroke-width="2"></line>
  <line x1="24" x2="21" y1="8" y2="12" fill="none" stroke="#753bf4" stroke-linecap="round" stroke-linejoin="round" stroke-width="2"></line>
  <polygon fill="#bb87ff" points="27 21 20 21 20 29 27 21"></polygon>
  <path fill="none" stroke="#753bf4" stroke-linecap="round" stroke-linejoin="round" stroke-width="2" d="M28,6V21H20v8H7a3,3,0,0,1-3-3V6A3,3,0,0,1,7,3H25A3,3,0,0,1,28,6Z"></path>
  <line x1="28" x2="20" y1="21" y2="29" fill="none" stroke="#753bf4" stroke-linecap="round" stroke-linejoin="round" stroke-width="2"></line>
</svg>
